<svg width="140" height="26" viewBox="0 0 140 26" fill="none" xmlns="http://www.w3.org/2000/svg">
  <path d="M23.9143 1.13672H0V9.42648H23.9143V1.13672Z" fill="#EBEBEB"/>
  <path d="M11.16 11.0195H0V19.3093H2.8697V25.0487H11.1595V11.0195H11.16Z" fill="#EBEBEB"/>
  <path d="M12.7539 19.3093V25.0487H21.0437V19.3093H23.9134V11.0195H12.7539V19.3093Z" fill="#EBEBEB"/>
  <path d="M47.7245 10.4118V6.90677H44.1484V25.0324H47.7595V16.6175C47.7595 11.6381 49.7229 10.6922 51.651 10.3768C52.1464 10.2679 52.6515 10.2092 53.1587 10.2015V6.80078C50.494 6.80078 48.6703 7.81753 47.7245 10.4118Z" fill="#EBEBEB"/>
  <path d="M59.0759 6.90625H55.4648V25.0319H59.0759V6.90625Z" fill="#EBEBEB"/>
  <path d="M59.3215 0H55.5352V3.75126H59.3215V0Z" fill="#EBEBEB"/>
  <path d="M38.4238 19.3884V9.78224H41.9289V6.90725H38.4238V1.12109L34.8828 2.69866V6.90585H32.1133V9.78224H34.8828V19.7391C34.8828 22.8242 36.3553 25.068 40.2119 25.068H41.9659V22.1223H40.7385C39.1601 22.1223 38.4238 21.1414 38.4238 19.3884Z" fill="#EBEBEB"/>
  <path d="M133.479 6.451C130.674 6.451 128.991 8.13371 128.045 10.2023V0H124.469V25.0323H128.08V16.3728C128.08 11.745 130.183 9.5363 132.778 9.5363C135.267 9.5363 136.424 11.0788 136.424 14.094V25.0323H140V13.4981C140 9.57107 138.212 6.451 133.479 6.451Z" fill="#EBEBEB"/>
  <path d="M65.9587 0H62.3477V25.0323H65.9587V0Z" fill="#EBEBEB"/>
  <path d="M94.5377 6.45117C89.3488 6.45117 85.5625 10.4127 85.5625 15.8815C85.5625 21.5961 89.1735 25.4876 94.5727 25.4876C98.7454 25.4876 101.83 23.4193 102.847 19.6681H99.3071C98.6759 21.6662 96.7829 22.5428 94.5391 22.5428C91.4888 22.5428 89.3151 20.4392 89.0347 16.9683H103.128V16.3024C103.092 11.3944 100.813 6.45117 94.5377 6.45117ZM89.0684 14.2694C89.489 11.3243 91.4524 9.32588 94.5377 9.32588C97.658 9.32588 99.2706 11.3944 99.5511 14.2694H89.0684Z" fill="#EBEBEB"/>
  <path d="M114.08 22.5445C110.575 22.5445 108.331 19.6697 108.331 15.9883C108.331 12.2721 110.575 9.36206 114.08 9.36206C116.745 9.36206 118.042 10.7997 118.709 12.5174H122.214C121.477 9.01238 118.709 6.45312 114.15 6.45312C108.611 6.45312 104.754 10.3446 104.754 15.9891C104.754 21.5986 108.611 25.4901 114.15 25.4901C118.532 25.4901 121.407 23.2463 122.354 19.3198H118.814C118.077 21.4226 116.501 22.5445 114.08 22.5445Z" fill="#EBEBEB"/>
  <path d="M81.2402 19.3884V9.78224H84.7453V6.90725H81.2402V1.12109L77.6992 2.69866V6.90585H74.9297V9.78224H77.6992V19.7391C77.6992 22.8242 79.1719 25.068 83.0284 25.068H84.7809V22.1223H83.5552C81.9766 22.1223 81.2402 21.1414 81.2402 19.3884Z" fill="#EBEBEB"/>
  <path d="M72.5681 6.90625H68.957V25.0319H72.5681V6.90625Z" fill="#EBEBEB"/>
  <path d="M72.8139 0H69.0273V3.75126H72.8139V0Z" fill="#EBEBEB"/>
</svg>
